<svg width="32" height="32" viewBox="0 0 32 32" fill="none" xmlns="http://www.w3.org/2000/svg">
<rect width="32" height="32" fill="#03001B"/>
<path d="M27.2361 14.7255H26.9856C26.6584 14.7255 26.3437 14.5938 26.1121 14.3589L21.4141 9.59809C20.1539 8.32061 17.9999 9.22516 17.9999 11.0311V12.0943V14.2462C17.9999 14.5112 17.7885 14.7255 17.5271 14.7255H16.9855C16.6583 14.7255 16.3436 14.5938 16.1119 14.3589L11.414 9.59809C10.1538 8.32061 7.99974 9.22516 7.99974 11.0311V12.0943V14.2462C7.99974 14.5112 7.7884 14.7255 7.52697 14.7255H5.23671C4.55417 14.7255 4 15.2873 4 15.9792V20.7463C4 21.4382 4.55417 22 5.23671 22H6.76303C7.44557 22 7.99974 21.4382 7.99974 20.7463V15.8839C7.99974 15.4571 8.50851 15.2428 8.80751 15.5443L14.5856 21.4017C15.8458 22.6792 17.9999 21.7747 17.9999 19.9687V15.8839C17.9999 15.4571 18.5086 15.2428 18.8076 15.5443L24.5857 21.4017C25.8459 22.6792 28 21.7747 28 19.9687V15.4999C28 15.073 27.6587 14.7255 27.2361 14.7255Z" fill="#FCFCFC"/>
</svg>
