<svg version="1.2" xmlns="http://www.w3.org/2000/svg" viewBox="0 0 32 32" width="32" height="32">
	<title>motorica_logo_dark-svg</title>
	<style>
		.s0 { fill: #8729ff } 
		.s1 { fill: #fcfcfc } 
	</style>
	<path id="Layer copy 3" class="s0" d="m0 0h32v32h-32z"/>
	<path id="Layer" class="s1" d="m27.2 14.7h-0.2c-0.3 0-0.7-0.1-0.9-0.3l-4.7-4.8c-1.2-1.3-3.4-0.4-3.4 1.4v1.1 2.1c0 0.3-0.2 0.5-0.5 0.5h-0.5c-0.3 0-0.7-0.1-0.9-0.3l-4.7-4.8c-1.2-1.3-3.4-0.4-3.4 1.4v1.1 2.1c0 0.3-0.2 0.5-0.5 0.5h-2.3c-0.6 0-1.2 0.6-1.2 1.3v4.7c0 0.7 0.6 1.3 1.2 1.3h1.6c0.6 0 1.2-0.6 1.2-1.3v-4.8c0-0.4 0.5-0.7 0.8-0.4l5.8 5.9c1.2 1.3 3.4 0.4 3.4-1.4v-4.1c0-0.4 0.5-0.7 0.8-0.4l5.8 5.9c1.2 1.3 3.4 0.4 3.4-1.4v-4.5c0-0.4-0.3-0.8-0.8-0.8z"/>
</svg>